<?xml version="1.0" standalone="no"?>
<!DOCTYPE svg PUBLIC "-//W3C//DTD SVG 20010904//EN"
 "http://www.w3.org/TR/2001/REC-SVG-20010904/DTD/svg10.dtd">
<svg version="1.0" xmlns="http://www.w3.org/2000/svg"
 width="512.000000pt" height="512.000000pt" viewBox="0 0 512.000000 512.000000"
 preserveAspectRatio="xMidYMid meet">
<metadata>
Created by potrace 1.14, written by Peter Selinger 2001-2017
</metadata>
<g transform="translate(0.000000,512.000000) scale(0.100000,-0.100000)"
fill="#000000" stroke="none">
<path d="M2450 5004 c0 -6 22 -65 49 -132 27 -67 45 -120 40 -117 -5 4 -9 2
-9 -2 0 -5 -37 -9 -82 -10 -46 -1 -100 -4 -120 -7 -21 -3 -53 -8 -70 -10 -75
-9 -233 -39 -238 -45 -3 -4 -12 -6 -20 -6 -8 1 -19 -2 -25 -6 -5 -4 -14 -8
-20 -9 -5 0 -19 -3 -31 -6 -11 -3 -27 -6 -35 -8 -8 -2 -27 -8 -42 -14 -15 -7
-40 -15 -55 -18 -15 -4 -44 -15 -64 -26 -21 -10 -38 -16 -38 -14 0 3 -21 -5
-47 -18 -27 -13 -63 -30 -80 -37 -18 -8 -33 -18 -33 -22 0 -5 -4 -5 -10 -2 -5
3 -10 1 -10 -6 0 -7 -3 -9 -7 -6 -3 4 -11 3 -17 -2 -10 -7 -34 -21 -131 -75
-32 -18 -79 -50 -93 -63 -6 -6 -21 -15 -32 -18 -11 -3 -20 -11 -20 -16 0 -5
-8 -13 -17 -16 -18 -6 -38 -21 -128 -96 -57 -47 -295 -287 -295 -297 0 -4 -10
-18 -22 -32 -13 -13 -31 -35 -41 -49 -9 -13 -37 -52 -62 -86 -25 -35 -45 -67
-45 -73 0 -5 -3 -10 -7 -10 -5 0 -17 -18 -27 -40 -11 -22 -23 -40 -28 -40 -4
0 -8 -7 -8 -15 0 -17 -28 -65 -45 -77 -5 -4 -6 -8 -1 -8 4 0 2 -10 -6 -22 -8
-13 -23 -44 -33 -70 -10 -27 -21 -48 -25 -48 -4 0 -7 -6 -8 -12 0 -7 -17 -58
-37 -113 -20 -55 -39 -111 -41 -124 -3 -14 -8 -29 -11 -34 -3 -6 -8 -20 -9
-31 -2 -12 -12 -60 -23 -108 -27 -121 -39 -217 -45 -339 -1 -25 -6 -51 -10
-57 -4 -7 -2 -12 4 -12 6 0 8 -5 3 -12 -10 -17 -10 -39 0 -62 6 -13 5 -21 -4
-27 -8 -5 -9 -9 -4 -9 6 0 11 -23 11 -52 1 -57 12 -190 19 -223 3 -11 7 -36
10 -55 4 -32 14 -82 19 -105 2 -5 6 -28 10 -50 4 -22 10 -47 13 -55 3 -8 7
-22 9 -30 2 -8 19 -62 39 -120 20 -58 36 -111 37 -117 1 -7 6 -13 11 -13 5 0
7 -7 3 -15 -3 -8 -2 -15 2 -15 4 0 13 -15 21 -32 43 -102 76 -168 84 -168 5 0
7 -7 3 -15 -3 -8 -1 -15 3 -15 5 0 19 -19 31 -42 12 -24 42 -71 66 -106 24
-35 44 -67 44 -72 0 -4 3 -10 7 -12 5 -1 24 -24 43 -49 97 -127 258 -296 355
-374 28 -22 54 -46 58 -53 4 -6 14 -12 22 -12 7 0 15 -4 17 -8 3 -7 60 -50
123 -92 46 -31 187 -110 196 -110 5 0 9 -4 9 -10 0 -5 3 -9 8 -8 4 1 35 -12
70 -30 34 -18 62 -29 62 -26 0 4 9 -1 19 -10 11 -10 25 -15 30 -11 6 3 11 1
11 -5 0 -6 4 -9 9 -5 5 3 12 1 15 -4 5 -8 181 -67 261 -87 17 -4 35 -8 40 -10
92 -26 271 -52 420 -59 189 -11 215 -11 219 0 2 5 5 4 5 -3 1 -9 6 -10 19 -3
9 5 33 9 52 9 57 0 195 19 335 46 6 1 16 5 23 9 6 5 12 6 12 3 0 -3 23 2 52
10 28 9 59 17 67 19 9 2 43 13 76 25 33 11 67 22 75 24 26 7 215 89 220 96 6
9 52 25 63 22 4 -1 7 2 7 8 0 5 15 16 33 25 45 20 105 56 181 109 35 25 70 46
75 46 6 0 11 4 11 9 0 5 13 17 29 28 71 45 256 221 341 323 25 30 55 64 67 77
12 13 20 23 17 23 -3 0 2 7 11 16 36 37 200 294 187 294 -4 0 -2 4 4 8 9 6 77
136 79 152 0 3 6 15 13 26 6 12 8 24 5 28 -3 3 -2 6 4 6 6 0 16 20 23 45 7 25
17 45 22 45 5 0 7 4 4 8 -5 8 12 65 25 87 4 6 5 18 4 28 -2 9 1 17 6 17 5 0 8
3 8 8 -1 4 0 9 1 12 2 7 6 24 35 155 25 115 30 150 40 275 2 30 4 55 5 55 1 0
3 60 4 133 1 72 0 132 -3 132 -3 0 -6 24 -7 53 -2 129 -48 374 -94 502 -19 53
-42 122 -45 135 -10 36 -32 89 -44 103 -7 9 -10 20 -7 26 3 5 3 11 -2 13 -4 1
-22 34 -41 72 -18 39 -41 83 -52 98 -11 15 -17 28 -12 28 4 0 3 4 -2 8 -6 4
-24 30 -40 57 -16 28 -35 56 -42 63 -7 7 -13 18 -13 23 0 6 -6 16 -12 24 -7 7
-24 27 -38 45 -14 17 -32 40 -40 50 -8 10 -24 31 -35 46 -11 16 -36 45 -56 66
-20 21 -35 38 -33 38 9 0 -169 168 -231 218 -38 31 -76 63 -82 71 -7 8 -13 11
-13 7 0 -4 -7 0 -16 8 -21 22 -152 106 -164 106 -6 0 -10 3 -10 8 0 4 -10 12
-23 18 -12 6 -68 34 -124 63 -56 28 -106 51 -112 51 -6 0 -11 4 -11 10 0 5 -3
9 -7 8 -5 -1 -21 4 -36 10 -16 7 -34 12 -42 12 -8 0 -16 4 -19 9 -3 5 -28 14
-56 21 -28 7 -53 16 -56 21 -3 5 -10 7 -15 4 -5 -4 -9 -3 -9 2 0 4 -10 9 -22
9 -25 2 -44 7 -70 18 -9 4 -22 5 -28 1 -5 -3 -10 -2 -10 3 0 8 -86 27 -168 38
-51 7 -56 8 -64 19 -5 6 -8 6 -8 -2 0 -13 -37 -6 -59 11 -11 8 -13 8 -8 -1 6
-9 -1 -11 -25 -7 -18 3 -68 7 -111 8 -42 2 -80 5 -82 8 -5 4 27 90 66 175 39
86 40 84 -99 86 -81 1 -122 -2 -122 -9z"/>
</g>
</svg>
